<svg xmlns="http://www.w3.org/2000/svg" xmlns:xlink="http://www.w3.org/1999/xlink" width="50" height="50" viewBox="0 0 50 50"><defs><path id="a" d="M0 .008h28.99v25.978H0z"/></defs><g fill="none" fill-rule="evenodd"><circle cx="25" cy="25" r="25" fill="#FFE812"/><g transform="translate(11 13)"><mask id="b" fill="#fff"><use xlink:href="#a"/></mask><path fill="#000" d="M14.495.008C6.489.008 0 4.977 0 11.106c0 3.963 2.713 7.44 6.794 9.403-.222.744-1.427 4.784-1.475 5.101 0 0-.028.239.13.33.16.09.347.02.347.02.456-.062 5.288-3.358 6.124-3.93.836.115 1.696.174 2.575.174 8.005 0 14.494-4.969 14.494-11.098C28.99 4.976 22.5.008 14.495.008" mask="url(#b)"/></g><path fill="#FFE812" d="M31.325 27.99c-.47 0-.852-.355-.852-.79v-5.41c0-.435.382-.79.852-.79s.851.355.851.79v1.7l2.376-2.206a.689.689 0 0 1 .472-.176c.213 0 .426.085.586.234.15.138.238.316.25.5a.591.591 0 0 1-.188.482l-1.94 1.802 2.096 2.578a.743.743 0 0 1 .163.585.776.776 0 0 1-.33.522.887.887 0 0 1-.512.16.869.869 0 0 1-.68-.315L32.472 25.2l-.296.274v1.725c0 .436-.381.79-.851.79zm-4.73-.105c-.45 0-.817-.325-.817-.725v-5.37c0-.435.39-.79.87-.79.479 0 .869.355.869.79v4.645h1.81c.45 0 .815.326.815.725 0 .4-.366.725-.816.725h-2.732zm-3.691-2.67l-.85-2.243-.851 2.243h1.7zm1.578 2.775c-.355 0-.627-.134-.709-.35l-.422-1.024h-2.596l-.422 1.025c-.081.215-.353.349-.708.349-.187 0-.371-.037-.541-.11-.235-.1-.46-.376-.202-1.122l2.037-4.978c.143-.378.58-.768 1.134-.78.556.012.992.402 1.135.781l2.036 4.976c.26.747.034 1.023-.201 1.124-.17.072-.355.109-.541.109zm-7.466.01c-.47 0-.852-.339-.852-.755v-4.697h-1.328c-.461 0-.836-.347-.836-.774 0-.427.375-.774.836-.774h4.36c.46 0 .835.347.835.774 0 .427-.375.774-.835.774h-1.329v4.697c0 .416-.382.755-.851.755z"/></g></svg>