<svg xmlns="http://www.w3.org/2000/svg" width="50" height="50" viewBox="0 0 50 50">
    <circle cx="25" cy="25" r="20" fill="#FFFFFF"/>
    <path fill="#1DA1F2" fill-rule="evenodd" d="M35.44 19.982c.01.217.016.434.016.654 0 6.67-5.16 14.364-14.594 14.364A14.69 14.69 0 0 1 13 32.733c.402.046.81.069 1.223.069 2.404 0 4.614-.806 6.37-2.161-2.245-.04-4.138-1.5-4.791-3.505a5.254 5.254 0 0 0 2.317-.088c-2.347-.463-4.114-2.504-4.114-4.95v-.064c.69.378 1.482.606 2.323.632a5.029 5.029 0 0 1-2.283-4.202c0-.926.253-1.794.696-2.54A14.64 14.64 0 0 0 25.313 21.2a4.988 4.988 0 0 1-.133-1.15c0-2.789 2.297-5.05 5.128-5.05 1.476 0 2.81.614 3.744 1.595a10.362 10.362 0 0 0 3.257-1.224 5.089 5.089 0 0 1-2.254 2.793A10.42 10.42 0 0 0 38 17.369a10.352 10.352 0 0 1-2.56 2.613M25 0C11.192 0 0 11.192 0 25c0 13.806 11.192 25 25 25s25-11.194 25-25C50 11.192 38.808 0 25 0"/>
</svg>
